<svg xmlns="http://www.w3.org/2000/svg" viewBox="0 0 333 285"><defs><style>.cls-1,.cls-35{opacity:0.6;}.cls-2{fill:#f39;}.cls-3{fill:#005557;}.cls-4{opacity:0.76;}.cls-5{fill:#92bcd2;}.cls-6{opacity:0.8;}.cls-7{opacity:0.66;}.cls-18,.cls-8{fill:#e6f6f6;}.cls-35,.cls-9{fill:#fff;}.cls-10{fill:#194993;}.cls-11{fill:#37a8e5;}.cls-12{fill:#7fc6ec;}.cls-13{fill:#3fa9f5;}.cls-14{fill:#e0ebeb;}.cls-15{fill:#002d46;}.cls-16{fill:#c0dfed;}.cls-17{fill:#2ba5fd;}.cls-18{stroke:#171784;stroke-miterlimit:10;stroke-width:0.25px;}.cls-19{fill:#002d73;}.cls-20{opacity:0.2;}.cls-21{fill:#cdeded;}.cls-22{fill:#00378d;}.cls-23{opacity:0.3;}.cls-24{fill:#0041a6;}.cls-25{fill:#004e89;}.cls-26{opacity:0.61;}.cls-27{font-size:2.43px;font-family:Marion-Bold, Marion;font-weight:700;}.cls-27,.cls-29{fill:#2b83b2;}.cls-28{letter-spacing:-0.09em;}.cls-30{fill:#1f4379;}.cls-31{fill:#e8505b;}.cls-32{opacity:0.4;}.cls-33{fill:#ffbe9d;}.cls-34{fill:#df4400;}.cls-36{fill:#263238;}.cls-37{fill:#ff6e2e;}.cls-38{fill:#eb996e;}</style></defs><title>01</title><g id="Capa_6" data-name="Capa 6"><g class="cls-1"><path class="cls-2" d="M215.5,125.3c-6.58-6.53-5.95-16-3.46-24,.42-1.35.64-2.82,1.68-3.86a3.52,3.52,0,0,1,4.2-.64c1,.72,1.19,2,1.57,3.1a8.08,8.08,0,0,0,2.79,3.8,3.77,3.77,0,0,0,3.08.91c1.5-.36,2.09-1.95,2.44-3.31.66-2.52,1.31-5,2-7.57a11.88,11.88,0,0,1,1.54-3.91A4.91,4.91,0,0,1,235,87.56c1.55,0,3.15,1.07,3.1,2.46a11.54,11.54,0,0,1-.41,1.69,1.38,1.38,0,0,0,.59,1.53,2.08,2.08,0,0,0,1.84-.27,20,20,0,0,0,5-4.1,27.09,27.09,0,0,1,4.74-4.32,9.27,9.27,0,0,1,6.34-1.6c2.22.35,4.23,2,4.27,4s-1.73,3.69-3.51,4.94a36.26,36.26,0,0,1-8.7,4.51,2.88,2.88,0,0,0-1.49.88c-.57.83.16,1.93,1.08,2.43a19.79,19.79,0,0,0,3.47,1.11c1.16.37,2.32,1.1,2.51,2.2.25,1.51-1.44,2.68-3,3.36A33,33,0,0,1,241,109a11.22,11.22,0,0,0-3.58.7c-1.09.51-2,1.61-1.67,2.68s1.61,1.67,2.84,1.72a22.57,22.57,0,0,0,3.65-.43c2.29-.26,5,.44,5.88,2.32a4,4,0,0,1-.5,3.89,10.81,10.81,0,0,1-3.21,2.86A32.35,32.35,0,0,1,229.81,128c-5.27.48-9.89-.07-14.31-2.65"/><path class="cls-3" d="M216.84,126.09c1.19-3.16-.06-1.57,2.4-5.39a124.26,124.26,0,0,1,8.93-11.91l2.52-3c.82-1,1.65-2,2.52-2.88a65.08,65.08,0,0,1,5.35-5c1.78-1.52,3.54-2.9,5.2-4.18s3.23-2.44,4.71-3.45A56,56,0,0,1,255.86,86c.92-.45,1.64-.77,2.13-1l.57-.24.19-.07-.18.1L258,85c-.48.23-1.2.57-2.1,1a60.24,60.24,0,0,0-7.33,4.35c-1.47,1-3,2.19-4.68,3.47s-3.39,2.68-5.17,4.19a68.15,68.15,0,0,0-5.32,5c-.86.91-1.68,1.88-2.51,2.87l-2.51,3a126.47,126.47,0,0,0-8.93,11.86c-2.46,3.81-1.22,2.2-2.44,5.34"/><path class="cls-3" d="M233.29,102.91a2.23,2.23,0,0,1,0-.61c0-.39.07-1,.14-1.65.14-1.39.42-3.31.73-5.42s.55-4,.67-5.41c.06-.7.1-1.26.13-1.65a2.83,2.83,0,0,1,.07-.61,2.81,2.81,0,0,1,0,.61c0,.39,0,1,0,1.66-.07,1.39-.28,3.32-.59,5.43s-.59,4-.81,5.41c-.09.65-.17,1.2-.23,1.64A2.78,2.78,0,0,1,233.29,102.91Z"/><path class="cls-3" d="M253.79,103.77a4.28,4.28,0,0,1-.8-.08l-2.18-.26c-1.85-.2-4.41-.41-7.24-.52s-5.41-.12-7.27-.08l-2.2.07a7.13,7.13,0,0,1-.81,0,4.26,4.26,0,0,1,.8-.11c.52,0,1.28-.11,2.21-.15,1.86-.09,4.44-.11,7.28,0s5.41.35,7.25.6c.93.12,1.67.25,2.18.34A5.54,5.54,0,0,1,253.79,103.77Z"/><path class="cls-3" d="M219.57,120.43a1.29,1.29,0,0,1-.08-.24c0-.19-.1-.42-.16-.7-.15-.61-.33-1.49-.53-2.59-.42-2.19-.88-5.23-1.34-8.59s-.9-6.4-1.26-8.6l-.44-2.6c0-.28-.08-.51-.11-.7s0-.25,0-.25,0,.08.07.24.11.42.17.69c.14.61.32,1.5.53,2.59.42,2.19.88,5.23,1.34,8.59s.9,6.41,1.26,8.6l.44,2.6c0,.28.08.52.11.71A.94.94,0,0,1,219.57,120.43Z"/><path class="cls-3" d="M247.65,118.45a.82.82,0,0,1-.28,0l-.82.07-3,.22c-2.54.18-6,.47-9.92.79s-7.38.58-9.93.72c-1.27.07-2.3.11-3,.13l-.82,0h-.29a.85.85,0,0,1,.29,0l.81-.07,3-.22c2.54-.18,6-.47,9.92-.79s7.38-.58,9.93-.72c1.27-.07,2.3-.11,3-.13l.82,0A1.29,1.29,0,0,1,247.65,118.45Z"/></g><g class="cls-4"><path class="cls-5" d="M207.72,162c1.18-7.89-5.08-14.4-12.91-18.31s-16.92-5.22-25.57-7.4c-8.16-2.05-16.27-5-22.31-10.31s-9.67-13.19-7.5-20.45a7.88,7.88,0,0,1,3.29-4.7c1.77-1.05,4.47-1,5.79.45,2.8,3.16-2.67,8.8.76,11.43.78.61,1.87.83,2.68,1.4,2.17,1.53,1.47,4.51,1.77,6.94.61,4.83,5.71,8.17,10.73,10.13,6.72,2.62,14,3.85,21.12,5.4s14.32,3.5,20.26,7.32,11.09,9.8,11,16.3c0,1.81-.28,4.05-1.56,5.46a3.94,3.94,0,0,1-4.79.93c-1.85-.77-3.15-2-2.81-4.59"/><g class="cls-6"><path class="cls-5" d="M207.72,162c1.18-7.89-5.08-14.4-12.91-18.31s-16.92-5.22-25.57-7.4c-8.16-2.05-16.27-5-22.31-10.31s-9.67-13.19-7.5-20.45a7.88,7.88,0,0,1,3.29-4.7c1.77-1.05,4.47-1,5.79.45,2.8,3.16-2.67,8.8.76,11.43.78.61,1.87.83,2.68,1.4,2.17,1.53,1.47,4.51,1.77,6.94.61,4.83,5.71,8.17,10.73,10.13,6.72,2.62,14,3.85,21.12,5.4s14.32,3.5,20.26,7.32,11.09,9.8,11,16.3c0,1.81-.28,4.05-1.56,5.46a3.94,3.94,0,0,1-4.79.93c-1.85-.77-3.15-2-2.81-4.59"/></g><path class="cls-5" d="M169.84,99.23c-.29-2.92,2.17-5.47,5-6.83s6-1.92,8.89-3.13a20,20,0,0,0,12.05-17.33c.33-7.26-3.22-14.51-8.78-19.84-2.25-2.16-5-4.43-5.07-7.39s3.35-5.51,6.72-5.47a11.54,11.54,0,0,1,8.5,4.55,29.16,29.16,0,0,1,4.22,8.46c-.77-1.23.82-2.76,2.35-2.62A5.75,5.75,0,0,1,207.38,52a23.39,23.39,0,0,1,5.52,17.06,23.07,23.07,0,0,1-8.58,15.64c-5.45,4.4-12.67,6.47-19.67,8.42L170,97.22"/><g class="cls-6"><path class="cls-5" d="M169.84,99.23c-.29-2.92,2.17-5.47,5-6.83s6-1.92,8.89-3.13a20,20,0,0,0,12.05-17.33c.33-7.26-3.22-14.51-8.78-19.84-2.25-2.16-5-4.43-5.07-7.39s3.35-5.51,6.72-5.47a11.54,11.54,0,0,1,8.5,4.55,29.16,29.16,0,0,1,4.22,8.46c-.77-1.23.82-2.76,2.35-2.62A5.75,5.75,0,0,1,207.38,52a23.39,23.39,0,0,1,5.52,17.06,23.07,23.07,0,0,1-8.58,15.64c-5.45,4.4-12.67,6.47-19.67,8.42L170,97.22"/></g><path class="cls-5" d="M165.77,37.81a2.74,2.74,0,0,0-1.7,3.47,3.34,3.34,0,0,0,3.85,1.66,2.81,2.81,0,0,0,2-3.33,3.27,3.27,0,0,0-3.68-2"/><g class="cls-6"><path class="cls-5" d="M165.77,37.81a2.74,2.74,0,0,0-1.7,3.47,3.34,3.34,0,0,0,3.85,1.66,2.81,2.81,0,0,0,2-3.33,3.27,3.27,0,0,0-3.68-2"/></g></g><g class="cls-7"><path class="cls-5" d="M181.17,216.56c-1.69-2.88-.22-6.46,2.46-8.77s6.34-3.62,9.89-4.91c7.82-2.85,16.1-6.23,20.08-12.48a29.17,29.17,0,0,0,2.86-6.72c1.46-4.44,2.82-9.49-.11-13.4a5.79,5.79,0,0,0-3.7-2.36,5.58,5.58,0,0,0-4.75,1.75,7.77,7.77,0,0,0-1.82,4.21c-.43,2.85-.07,5.74-.43,8.6a9.71,9.71,0,0,1-4.48,7.47c-3.47,2-8.41,1.55-11.77,3.65-2.72,1.7-3.75,4.65-5.87,6.85-1.79,1.85-4.29,3.11-6.57,4.54s-4.51,3.15-5.28,5.43a5.91,5.91,0,0,0,2.47,6.66,9.37,9.37,0,0,0,8.38.9"/><g class="cls-6"><path class="cls-5" d="M181.17,216.56c-1.69-2.88-.22-6.46,2.46-8.77s6.34-3.62,9.89-4.91c7.82-2.85,16.1-6.23,20.08-12.48a29.17,29.17,0,0,0,2.86-6.72c1.46-4.44,2.82-9.49-.11-13.4a5.79,5.79,0,0,0-3.7-2.36,5.58,5.58,0,0,0-4.75,1.75,7.77,7.77,0,0,0-1.82,4.21c-.43,2.85-.07,5.74-.43,8.6a9.71,9.71,0,0,1-4.48,7.47c-3.47,2-8.41,1.55-11.77,3.65-2.72,1.7-3.75,4.65-5.87,6.85-1.79,1.85-4.29,3.11-6.57,4.54s-4.51,3.15-5.28,5.43a5.91,5.91,0,0,0,2.47,6.66,9.37,9.37,0,0,0,8.38.9"/></g></g><path class="cls-8" d="M128.41,60.49a10,10,0,0,1-4.65-8.37,10.12,10.12,0,0,1,5-8.23c1.7-1,3.71-1.67,5.23-2.91,1.34-1.11,2.21-2.64,3.72-3.57a6.14,6.14,0,0,1,6.39.12A4.62,4.62,0,0,1,145.91,43c-.7,1.72-2.44,3-3.17,4.68s-.27,3.89-.57,5.84a8.22,8.22,0,0,1-4.33,5.86A10.34,10.34,0,0,1,130,60"/><g class="cls-6"><path class="cls-9" d="M128.41,60.49a10,10,0,0,1-4.65-8.37,10.12,10.12,0,0,1,5-8.23c1.7-1,3.71-1.67,5.23-2.91,1.34-1.11,2.21-2.64,3.72-3.57a6.14,6.14,0,0,1,6.39.12A4.62,4.62,0,0,1,145.91,43c-.7,1.72-2.44,3-3.17,4.68s-.27,3.89-.57,5.84a8.22,8.22,0,0,1-4.33,5.86A10.34,10.34,0,0,1,130,60"/></g><path class="cls-10" d="M128.62,50h6.8a0,0,0,0,1,0,0V62.95a2.11,2.11,0,0,1-2.11,2.11h-2.59a2.11,2.11,0,0,1-2.11-2.11V50A0,0,0,0,1,128.62,50Z"/><polygon class="cls-11" points="128.63 50 132.02 44.48 135.42 50 128.63 50"/><path class="cls-12" d="M130.68,46.66s1,1.38,2.69,0L132,44.48Z"/><path class="cls-13" d="M135.52,61.8a26.3,26.3,0,0,1-3.46.12,26.08,26.08,0,0,1-3.45-.12,24.17,24.17,0,0,1,3.45-.12A24.37,24.37,0,0,1,135.52,61.8Z"/><path class="cls-13" d="M135.45,60.87a22.52,22.52,0,0,1-3.39.13,22.33,22.33,0,0,1-3.38-.13,25,25,0,0,1,3.38-.12A25.27,25.27,0,0,1,135.45,60.87Z"/><path class="cls-14" d="M130.62,50.08a50.83,50.83,0,0,1,.14,5.37,50.55,50.55,0,0,1-.14,5.36,50.55,50.55,0,0,1-.14-5.36A50.83,50.83,0,0,1,130.62,50.08Z"/><path class="cls-14" d="M133.37,50.08a50.83,50.83,0,0,1,.14,5.37,50.55,50.55,0,0,1-.14,5.36,50.55,50.55,0,0,1-.14-5.36A50.83,50.83,0,0,1,133.37,50.08Z"/><polygon class="cls-15" points="161.14 247.62 197.9 249.48 217.09 223.1 203.61 224.07 169.5 234.71 161.14 247.62"/><path class="cls-16" d="M156,245.67l33.75.47c-1.4-3.82,1.91-9.21,6.44-11,3-1.2,8.67-2.76,11.59-4.08,5.55-2.52,10.56-7.29,10.12-11.39L204,219.26l-17.69-.6c-1.48,3.88-4.65,6.43-9.46,8-4.3,1.37-9.2,1.36-13.4,2.92-6.76,2.51-10,10.63-7.49,16.13"/><path class="cls-16" d="M156,245.67l-.09-.2-.23-.57a7,7,0,0,1-.28-1,7.6,7.6,0,0,1-.24-1.36,12.44,12.44,0,0,1,.27-3.8,13.15,13.15,0,0,1,2.17-4.74,10.62,10.62,0,0,1,1-1.2c.18-.2.35-.4.55-.59l.62-.56a6,6,0,0,1,.68-.54c.24-.17.47-.35.72-.51a12.15,12.15,0,0,1,1.64-.87,32.41,32.41,0,0,1,8.05-1.95c1.46-.24,3-.48,4.47-.85a22.24,22.24,0,0,0,4.44-1.59,13.86,13.86,0,0,0,2.08-1.2,11.38,11.38,0,0,0,1.84-1.54,11.58,11.58,0,0,0,2.57-4l0-.08h.09l14.75.5c5.11.18,10.4.3,15.82.46l1,0H218v.11a5.91,5.91,0,0,1-.45,2.76,8.82,8.82,0,0,1-.61,1.28c-.26.39-.51.8-.81,1.17a19.18,19.18,0,0,1-4.18,3.91,25,25,0,0,1-5.05,2.76c-1.78.71-3.58,1.29-5.35,1.87s-3.51,1.12-5.17,1.76a11,11,0,0,0-2.27,1.22c-.35.23-.65.52-1,.77s-.61.55-.87.86a10.7,10.7,0,0,0-2.36,3.93,6.45,6.45,0,0,0-.08,4.18l0,.13h-.15l-24.55-.39-6.8-.12-1.79,0-.61,0h2.4l6.8.07,24.55.3-.11.13a6.74,6.74,0,0,1,.07-4.3,11,11,0,0,1,2.4-4c.26-.31.59-.58.88-.87s.64-.56,1-.79A10.75,10.75,0,0,1,196.3,235c1.67-.65,3.42-1.2,5.18-1.78s3.57-1.16,5.33-1.86a25.2,25.2,0,0,0,5-2.73,19.16,19.16,0,0,0,4.12-3.86,12.5,12.5,0,0,0,.79-1.16,9.5,9.5,0,0,0,.61-1.24,5.78,5.78,0,0,0,.43-2.66l.13.11-1,0c-5.42-.17-10.71-.29-15.82-.47l-14.75-.51.13-.08a11.75,11.75,0,0,1-2.62,4.08,12.33,12.33,0,0,1-1.88,1.57,15.83,15.83,0,0,1-2.11,1.22,23.22,23.22,0,0,1-4.5,1.59c-1.53.37-3,.61-4.5.84a32.84,32.84,0,0,0-8,1.91,14.7,14.7,0,0,0-1.63.85c-.24.16-.47.34-.71.51a4.34,4.34,0,0,0-.67.53l-.62.55c-.19.18-.36.39-.55.58a11.54,11.54,0,0,0-1,1.18,13.17,13.17,0,0,0-2.18,4.69,12.43,12.43,0,0,0-.31,3.77,8.79,8.79,0,0,0,.22,1.36,6,6,0,0,0,.26,1l.21.58C156,245.6,156,245.67,156,245.67Z"/><path class="cls-17" d="M195.81,219.14s0-.19.08-.53a2.76,2.76,0,0,0-.27-1.42,3.1,3.1,0,0,0-1.59-1.51,4.19,4.19,0,0,0-2.85-.09,3.55,3.55,0,0,0-2.05,1.75,3.2,3.2,0,0,0-.33,2.08,3.28,3.28,0,0,0,.58,1.35c.21.29.36.43.35.44a1.42,1.42,0,0,1-.44-.39,3.17,3.17,0,0,1-.68-1.37,3.27,3.27,0,0,1,.29-2.2,3.73,3.73,0,0,1,2.19-1.89,4.35,4.35,0,0,1,3,.12,3.16,3.16,0,0,1,1.66,1.65,2.55,2.55,0,0,1,.19,1.49,1.58,1.58,0,0,1-.11.39C195.84,219.1,195.82,219.14,195.81,219.14Z"/><path class="cls-17" d="M201.1,219.14s0-.19.08-.53a2.76,2.76,0,0,0-.27-1.42,3.1,3.1,0,0,0-1.59-1.51,4.19,4.19,0,0,0-2.85-.09,3.55,3.55,0,0,0-2.05,1.75,3.2,3.2,0,0,0-.33,2.08,3.28,3.28,0,0,0,.58,1.35c.21.29.36.43.35.44a1.42,1.42,0,0,1-.44-.39,3.17,3.17,0,0,1-.68-1.37,3.27,3.27,0,0,1,.29-2.2,3.74,3.74,0,0,1,2.18-1.89,4.38,4.38,0,0,1,3.06.12,3.16,3.16,0,0,1,1.66,1.65,2.55,2.55,0,0,1,.19,1.49,1.58,1.58,0,0,1-.11.39C201.13,219.1,201.11,219.14,201.1,219.14Z"/><path class="cls-17" d="M205.12,219.38a5.06,5.06,0,0,1,0-.53,2.7,2.7,0,0,0-.36-1.4,3.12,3.12,0,0,0-1.68-1.43,4.18,4.18,0,0,0-2.85,0,3.5,3.5,0,0,0-1.94,1.85,3.2,3.2,0,0,0-.19,2.1,3.39,3.39,0,0,0,.66,1.31c.23.28.39.41.38.43a1.72,1.72,0,0,1-.46-.37,3.21,3.21,0,0,1-.77-1.33,3.33,3.33,0,0,1,.14-2.22,3.69,3.69,0,0,1,2.07-2,4.33,4.33,0,0,1,3.05,0,3.24,3.24,0,0,1,1.77,1.57,2.6,2.6,0,0,1,.29,1.47,2.77,2.77,0,0,1-.09.4C205.15,219.34,205.13,219.39,205.12,219.38Z"/><path class="cls-17" d="M209.43,219.6s0-.19,0-.54a3,3,0,0,0-.44-1.38,3.28,3.28,0,0,0-1.78-1.35,4.11,4.11,0,0,0-2.83.19,3.42,3.42,0,0,0-1.83,1.94,3.25,3.25,0,0,0-.07,2.1,3.56,3.56,0,0,0,.74,1.28c.25.27.42.39.4.41a1.7,1.7,0,0,1-.48-.35,3.3,3.3,0,0,1-.84-1.29,3.25,3.25,0,0,1,0-2.22,3.64,3.64,0,0,1,1.94-2.09,4.38,4.38,0,0,1,3.05-.18,3.34,3.34,0,0,1,1.86,1.48,2.67,2.67,0,0,1,.37,1.46,1.71,1.71,0,0,1-.06.41A1.11,1.11,0,0,1,209.43,219.6Z"/><path class="cls-17" d="M213.74,219.51s0-.19,0-.54a2.65,2.65,0,0,0-.48-1.36,3.21,3.21,0,0,0-1.81-1.31,4.13,4.13,0,0,0-2.83.26,3.36,3.36,0,0,0-1.77,2,3.27,3.27,0,0,0,0,2.1,3.5,3.5,0,0,0,.78,1.26c.26.27.43.38.42.4a1.5,1.5,0,0,1-.5-.33,3.42,3.42,0,0,1-.88-1.27,3.27,3.27,0,0,1-.06-2.22,3.58,3.58,0,0,1,1.87-2.14,4.34,4.34,0,0,1,3.05-.25,3.3,3.3,0,0,1,1.9,1.43,2.66,2.66,0,0,1,.42,1.45,1.3,1.3,0,0,1-.05.4C213.77,219.47,213.75,219.51,213.74,219.51Z"/><path class="cls-17" d="M217.38,219.94s0-.2,0-.54A2.66,2.66,0,0,0,217,218a3.24,3.24,0,0,0-1.76-1.37,4.12,4.12,0,0,0-2.84.16,3.39,3.39,0,0,0-1.85,1.92,3.27,3.27,0,0,0-.1,2.1,3.48,3.48,0,0,0,.73,1.29c.24.27.41.39.39.41a1.47,1.47,0,0,1-.47-.35,3.18,3.18,0,0,1-.83-1.31,3.24,3.24,0,0,1,0-2.21,3.58,3.58,0,0,1,2-2.07,4.37,4.37,0,0,1,3.05-.15,3.32,3.32,0,0,1,1.84,1.5,2.62,2.62,0,0,1,.35,1.46,1.62,1.62,0,0,1-.07.41C217.41,219.9,217.39,219.94,217.38,219.94Z"/><path class="cls-18" d="M180,64.53c-.48-6.58-6.45-11.6-13.33-11.21a12,12,0,0,0-11.6,12.62A12.16,12.16,0,0,0,163,76.31c.11,1.41.22,3,.22,3l10.92-.62s0-1.69-.14-3.2A11.67,11.67,0,0,0,180,64.53Z"/><path class="cls-19" d="M170.22,78.87v-.14c0-.11,0-.25,0-.44,0-.38,0-.94.11-1.66s.14-1.6.31-2.62a16.93,16.93,0,0,1,.89-3.37,11.14,11.14,0,0,1,.9-1.84,2.07,2.07,0,0,1,.8-.78,1.29,1.29,0,0,1,1.18,0,.84.84,0,0,1,.43.44.79.79,0,0,1,0,.62,1.7,1.7,0,0,1-.9.85,3.62,3.62,0,0,1-2.61,0,3.42,3.42,0,0,1-1.9-1.89,2.38,2.38,0,0,1-.17-1.37,1.08,1.08,0,0,1,1.07-.89.79.79,0,0,1,.66.38,1,1,0,0,1,.16.73,2.29,2.29,0,0,1-.79,1.23,3.79,3.79,0,0,1-2.85,1A3.27,3.27,0,0,1,165,67.45,1.72,1.72,0,0,1,164.8,66a.88.88,0,0,1,.51-.56,1,1,0,0,1,.77,0,1.17,1.17,0,0,1,.56.49,1.91,1.91,0,0,1,.24.68,3.17,3.17,0,0,1-.09,1.37,3.51,3.51,0,0,1-1.61,2.1,3.9,3.9,0,0,1-2.55.48,2,2,0,0,1-1.17-.5.89.89,0,0,1-.15-1.14.84.84,0,0,1,.54-.3,1.2,1.2,0,0,1,.6.08,1.78,1.78,0,0,1,.83.77c.36.63.65,1.24.95,1.83,1.17,2.34,2,4.28,2.59,5.63.29.67.5,1.19.65,1.55l.16.41.05.14a1.42,1.42,0,0,1-.07-.14l-.17-.4L166.77,77c-.59-1.34-1.46-3.27-2.64-5.61-.3-.58-.6-1.2-1-1.81a1.61,1.61,0,0,0-.76-.72.88.88,0,0,0-1,.18.77.77,0,0,0,.15,1,1.87,1.87,0,0,0,1.09.47A3.78,3.78,0,0,0,165.1,70a3.36,3.36,0,0,0,1.55-2,3.21,3.21,0,0,0,.09-1.31,1.33,1.33,0,0,0-.72-1.06.82.82,0,0,0-.65,0,.77.77,0,0,0-.43.47,1.63,1.63,0,0,0,.18,1.32,3.16,3.16,0,0,0,2.41,1.51,3.67,3.67,0,0,0,2.73-.93,2.19,2.19,0,0,0,.75-1.15.92.92,0,0,0-.13-.63.68.68,0,0,0-.55-.32.84.84,0,0,0-.6.23,1,1,0,0,0-.32.55,2.3,2.3,0,0,0,.17,1.29,3.27,3.27,0,0,0,1.82,1.81,3.4,3.4,0,0,0,2.49,0,1.57,1.57,0,0,0,.84-.78.69.69,0,0,0-.36-.91,1.2,1.2,0,0,0-1.06,0,2,2,0,0,0-.76.74,10.51,10.51,0,0,0-.9,1.81,17.53,17.53,0,0,0-.91,3.36c-.17,1-.26,1.89-.33,2.61s-.1,1.27-.14,1.66l0,.43C170.23,78.82,170.22,78.87,170.22,78.87Z"/><path class="cls-19" d="M173.47,80.68l-9.37.53a.71.71,0,0,1-.76-.63h0a.68.68,0,0,1,.66-.71l9.38-.54a.72.72,0,0,1,.75.64h0A.68.68,0,0,1,173.47,80.68Z"/><path class="cls-19" d="M173.52,81.27l-9.38.53a.68.68,0,0,0-.66.71.7.7,0,0,0,.76.63l1,0,1.55,2.4a.92.92,0,0,0,.83.42l3.35-.19a.92.92,0,0,0,.78-.52l1.14-2.55.7,0a.68.68,0,0,0,.66-.71A.71.71,0,0,0,173.52,81.27Z"/><g class="cls-20"><path class="cls-9" d="M159,58.1a8.82,8.82,0,0,1,2.38-1.73,6.8,6.8,0,0,1,1.88-.64c.47-.08.74,0,.77.05s-.85.58-2.06,1.47a10.36,10.36,0,0,0-3.52,4.37,9.85,9.85,0,0,0-.46,5.51c.28,1.45.7,2.32.5,2.44s-.31-.11-.61-.47a6.54,6.54,0,0,1-.94-1.7,8.48,8.48,0,0,1-.54-2.83,8.72,8.72,0,0,1,.62-3.49"/></g><g class="cls-20"><path class="cls-9" d="M167.08,56.12c-.79,0-1.51-.13-1.62-.52-.05-.2.09-.42.36-.6a2.61,2.61,0,0,1,2.35-.12c.3.15.46.35.44.55"/></g><path class="cls-21" d="M171.61,85.43s-.26-.07-.66-.16a6,6,0,0,0-1.61-.1,5.88,5.88,0,0,0-1.55.37c-.38.15-.6.28-.62.26a2,2,0,0,1,.57-.35,4.4,4.4,0,0,1,1.59-.42,4.72,4.72,0,0,1,1.64.14A2.07,2.07,0,0,1,171.61,85.43Z"/><path class="cls-21" d="M172.94,82.68s-1.69.17-3.79.29-3.78.18-3.79.14,1.69-.17,3.78-.29S172.93,82.64,172.94,82.68Z"/><path class="cls-21" d="M172.43,83.78a6.27,6.27,0,0,1-.92.14c-.57.07-1.36.14-2.23.2s-1.67.1-2.24.11a4.89,4.89,0,0,1-.93,0,6.31,6.31,0,0,1,.92-.09l2.24-.15,2.23-.16A6.41,6.41,0,0,1,172.43,83.78Z"/><path class="cls-22" d="M134.76,185l.33.49a3.74,3.74,0,0,0,1.57,1.28l.58.25-.55.3a3.54,3.54,0,0,0-1.45,1.39l-.29.52-.33-.5a3.68,3.68,0,0,0-1.57-1.28l-.58-.25.55-.3a3.48,3.48,0,0,0,1.45-1.39Z"/><path class="cls-8" d="M104.09,84l.34.49A3.63,3.63,0,0,0,106,85.81l.58.25-.55.3a3.48,3.48,0,0,0-1.45,1.39l-.29.51-.33-.49a3.67,3.67,0,0,0-1.57-1.28l-.59-.26.56-.29a3.6,3.6,0,0,0,1.45-1.39Z"/><path class="cls-8" d="M246,101.46l.33.49a3.67,3.67,0,0,0,1.57,1.28l.58.26-.55.29a3.6,3.6,0,0,0-1.45,1.39l-.29.52-.33-.49a3.63,3.63,0,0,0-1.57-1.29l-.58-.25.55-.3a3.48,3.48,0,0,0,1.45-1.39Z"/><path class="cls-8" d="M242.08,82.5l.16.06a1.1,1.1,0,0,0,.57,0l.16,0-.06.14a.87.87,0,0,0-.06.5l0,.15-.16-.05a1.1,1.1,0,0,0-.57,0l-.17,0,.07-.14a.81.81,0,0,0,.05-.51Z"/><path class="cls-8" d="M110.33,70.84l.16.06a1.22,1.22,0,0,0,.57,0l.16,0-.06.14a.78.78,0,0,0,0,.5l0,.15-.16-.06a1.22,1.22,0,0,0-.57-.05l-.17,0,.07-.14a.78.78,0,0,0,0-.5Z"/><path class="cls-8" d="M126.59,170.32l.16.06a1.1,1.1,0,0,0,.57,0l.17,0-.07.14a.78.78,0,0,0,0,.5l0,.15-.16-.06a1.22,1.22,0,0,0-.57,0l-.17,0,.07-.14a.78.78,0,0,0,.05-.5Z"/><path class="cls-22" d="M144.22,208.77l-.15.14-.46.41-1.79,1.54-6.63,5.66,0-.06c.31,6.14.74,14.49,1.22,23.78v.21l-.2-.12-2.39-1.41-15.18-9,0,0v0l-5.53-14.6c-.66-1.77-1.18-3.18-1.55-4.14-.17-.48-.3-.85-.4-1.1s-.07-.22-.1-.29,0-.09,0-.1l0,.1.12.28.43,1.09c.38,1,.92,2.36,1.61,4.12,1.36,3.56,3.3,8.6,5.6,14.58l0-.05,15.19,9,2.39,1.42-.18.09c-.45-9.29-.86-17.64-1.15-23.78v0l0,0,6.69-5.61,1.81-1.51.48-.39Z"/><polygon class="cls-22" points="137.15 237.44 137.1 238.83 138.37 239.65 136.86 240.04 136.37 241.36 135.49 240.21 133.92 240.2 134.88 239.11 134.41 237.78 135.88 238.25 137.15 237.44"/><polygon class="cls-22" points="118.87 228.04 118.9 228.93 119.75 229.42 118.8 229.72 118.54 230.59 117.92 229.88 116.91 229.93 117.48 229.19 117.11 228.35 118.08 228.6 118.87 228.04"/><polygon class="cls-22" points="110.99 208 111.76 208.87 113 208.8 112.3 209.71 112.76 210.74 111.56 210.44 110.6 211.13 110.56 210.03 109.51 209.44 110.68 209.06 110.99 208"/><polygon class="cls-22" points="143.45 207.13 144.22 208 145.46 207.93 144.76 208.84 145.22 209.87 144.02 209.57 143.06 210.26 143.02 209.16 141.97 208.57 143.14 208.19 143.45 207.13"/><polygon class="cls-22" points="134.93 215.52 135.42 216.08 136.21 216.04 135.77 216.62 136.06 217.27 135.29 217.08 134.68 217.53 134.65 216.82 133.99 216.44 134.73 216.2 134.93 215.52"/><ellipse class="cls-2" cx="105.66" cy="168.73" rx="11.03" ry="9.77"/><g class="cls-23"><path class="cls-24" d="M104.23,171.78a1.81,1.81,0,1,1-1.8-1.6A1.71,1.71,0,0,1,104.23,171.78Z"/></g><g class="cls-23"><path class="cls-24" d="M101.68,167.18a1.05,1.05,0,1,1-1.05-.93A1,1,0,0,1,101.68,167.18Z"/></g><path class="cls-8" d="M95,171.1c.05.17-9.44,8.23-7,10s12.73-2.69,21.51-9,16.78-13.89,14.59-15.91-13.16,4-13.16,4l1.31.74s6.63-3.77,8.73-2.31-3.88,7.17-12.32,12.62S92.05,180.47,90.78,179s4.71-6.48,4.71-6.48Z"/><g class="cls-23"><path class="cls-25" d="M95,171.1c.05.17-9.44,8.23-7,10s12.73-2.69,21.51-9,16.78-13.89,14.59-15.91-13.16,4-13.16,4l1.31.74s6.63-3.77,8.73-2.31-3.88,7.17-12.32,12.62S92.05,180.47,90.78,179s4.71-6.48,4.71-6.48Z"/></g><g class="cls-23"><path class="cls-9" d="M99.59,161.85c.08.09-.66.66-1.51,1.78a8.14,8.14,0,0,0-.22,9.88c.79,1.16,1.51,1.74,1.42,1.83s-.94-.38-1.92-1.53A8,8,0,0,1,96,171.59a7.59,7.59,0,0,1,.14-6.1,8.09,8.09,0,0,1,1.43-2.17A4.43,4.43,0,0,1,99.59,161.85Z"/></g><g class="cls-26"><text class="cls-27" transform="matrix(0.99, -0.34, 0.39, 0.92, 62.68, 125.99)">&lt;<tspan class="cls-28" x="1" y="0">/</tspan><tspan x="1.73" y="0">CODE&gt;</tspan></text><polygon class="cls-29" points="113.13 108.45 73.91 121.78 73.41 120.6 112.63 107.26 113.13 108.45"/><polygon class="cls-29" points="109.07 113.49 63.85 128.87 63.43 127.85 108.65 112.47 109.07 113.49"/><polygon class="cls-29" points="105.86 117.55 70.32 129.64 69.89 128.62 105.43 116.54 105.86 117.55"/><polygon class="cls-29" points="94.03 124.55 73.36 131.57 72.94 130.56 93.6 123.53 94.03 124.55"/><polygon class="cls-29" points="99.37 125.7 76.41 133.51 75.98 132.49 98.95 124.68 99.37 125.7"/><polygon class="cls-29" points="115.84 123.07 70.73 138.41 70.3 137.4 115.41 122.06 115.84 123.07"/><polygon class="cls-29" points="95.76 132.87 73.61 140.4 73.19 139.39 95.33 131.85 95.76 132.87"/><polygon class="cls-29" points="85.3 139.4 74.75 142.99 74.32 141.97 84.87 138.38 85.3 139.4"/></g><path class="cls-30" d="M69,150.61c-1.77-.64-2.63-2.46-3.3-4.1l-2.38-5.81c-.59-1.45-1.3-3-2.78-3.76h0c.57-1.44-.05-3-.67-4.48l-2.48-5.77c-.7-1.63-1.4-3.51-.54-5"/><path class="cls-30" d="M123.08,129c.86-1.54.17-3.42-.53-5.05l-2.49-5.78c-.61-1.44-1.24-3-.67-4.47h0c-1.48-.74-2.19-2.31-2.78-3.76-.79-1.94-1.58-3.87-2.38-5.81-.67-1.64-1.53-3.46-3.3-4.11"/><path class="cls-31" d="M157.33,133.66l13.91-1.82-6.65-8.34-3.56.18a6.39,6.39,0,0,0-5.47,3.4h0a4.94,4.94,0,0,0-.4,3.29Z"/><path class="cls-32" d="M157.33,133.66l13.91-1.82-6.65-8.34-3.56.18a6.39,6.39,0,0,0-5.47,3.4h0a4.94,4.94,0,0,0-.4,3.29Z"/><path class="cls-33" d="M217.07,147.31c.15.35.3.77.46,1.27a3.45,3.45,0,0,1,.15,1.32,5.42,5.42,0,0,1-.31,1.62.55.55,0,0,0,.75.71,3.92,3.92,0,0,0,1.07-3.15c0-1.64,1.85.33,2.55,1s3,2.8,3.41,2.78c.61,0,.69-.61,0-1.3s-2.72-2.89-2.28-3.21,4,3.33,4,3.33.61.88,1.13.54c.93-.62-3.13-4.24-3.53-4.57s.19-.59.47-.32,3.42,3.69,4.38,3.07c.74-.48-3.31-3-3.51-4s2.85,2.19,3.53,1.7c.26-.18.42-.34-1.64-2-1-.78-4.79-3.13-4.79-3.13l-11.41-28.94-8.82,4.47Z"/><path class="cls-33" d="M149.12,92.59,136.37,79.11h0a7.77,7.77,0,0,0-.63-1.34,4.66,4.66,0,0,0-3-2.23,5.7,5.7,0,0,1-2.37-.55c-.28-.21-.47-.51-.77-.7s-.79-.24-1,0a.7.7,0,0,0,0,.68,6.55,6.55,0,0,0,2.22,2.53l-2.91.8s-2.69-2.59-4.07-2.58S125,78.08,125,78.08s-2.21-1.81-2.9-1.3,1.08,1.85,1.08,1.85a3.29,3.29,0,0,0-1.8-.45c-.62.1-1.16.75-.82,1.22a1.34,1.34,0,0,0,.56.4l3.39,1.68a4.37,4.37,0,0,0,1.82.58c1.72,0,3-.89,4.75-.85,0,0,9.62,17.92,10.59,18.85s22.11,2.18,22.11,2.18L176,92.91Z"/><path class="cls-34" d="M187.43,190.23l13,5-7,14.38c-1.51-.67-1-9.29-1-9.29l-8.5-2.92Z"/><g class="cls-1"><path class="cls-9" d="M193.92,195.62a.8.8,0,0,1,1-.12.57.57,0,0,1,.14.84.83.83,0,0,1-1,.12.58.58,0,0,1,0-.88"/></g><path class="cls-35" d="M200.46,195.25l-1.34-.46-6.18,14s0,.76.54.88Z"/><path class="cls-36" d="M192.27,200.54c.08,0,.29-.31.71-.56s.85-.31.85-.38-.51-.15-1,.16S192.19,200.52,192.27,200.54Z"/><path class="cls-36" d="M192.24,202.31c.07.05.36-.2.81-.31s.84-.05.87-.12-.4-.29-1-.14S192.17,202.28,192.24,202.31Z"/><path class="cls-36" d="M193.87,204c0-.06-.3-.31-.83-.3s-.85.28-.8.34.38-.06.81-.07S193.83,204,193.87,204Z"/><path class="cls-36" d="M190.42,199.68c.08,0,.13-.36.35-.75s.52-.64.47-.7-.48.13-.73.58S190.34,199.69,190.42,199.68Z"/><path class="cls-36" d="M188.66,198.61a1.51,1.51,0,0,0,.34-.72,3.1,3.1,0,0,0,.11-.86,4.45,4.45,0,0,0-.05-.5.88.88,0,0,0-.09-.29.38.38,0,0,0-.4-.2.48.48,0,0,0-.33.24.74.74,0,0,0-.09.29,2.26,2.26,0,0,0-.05.51,2.56,2.56,0,0,0,.17.85,1.36,1.36,0,0,0,.46.68s-.13-.28-.25-.73a2.73,2.73,0,0,1-.1-.8,2.63,2.63,0,0,1,.06-.47c0-.17.09-.3.18-.31s0,0,.09,0a.85.85,0,0,1,.06.22,4,4,0,0,1,.06.47,3.43,3.43,0,0,1,0,.81C188.72,198.31,188.61,198.59,188.66,198.61Z"/><path class="cls-36" d="M188.82,198.56s-.2-.27-.7-.49a3.22,3.22,0,0,0-.94-.24,2.81,2.81,0,0,0-.58,0,.73.73,0,0,0-.63.3.33.33,0,0,0,.08.39.87.87,0,0,0,.26.18,2,2,0,0,0,.55.21,2.21,2.21,0,0,0,1,0c.55-.12.79-.37.77-.39a8,8,0,0,1-.81.21,2.48,2.48,0,0,1-.88-.06,2.29,2.29,0,0,1-.46-.2c-.16-.08-.27-.19-.23-.24a.49.49,0,0,1,.39-.15,3.17,3.17,0,0,1,.53,0,3.93,3.93,0,0,1,.88.17C188.52,198.41,188.78,198.59,188.82,198.56Z"/><path class="cls-34" d="M177.4,210l5.39,10,1.69,9a1.28,1.28,0,0,0,1.56.92h0a1.28,1.28,0,0,0,.89-.68c1-2.17,4.59-10.17,4.14-10.88s-4.89-10.88-4.89-10.88Z"/><path class="cls-35" d="M186,229.89l4.69-12.24.22.42a1.56,1.56,0,0,1,.09,1.18A105.67,105.67,0,0,1,187,229.2a1.27,1.27,0,0,1-.92.69Z"/><g class="cls-1"><path class="cls-9" d="M186.73,215.32a.64.64,0,0,0,.22.89.82.82,0,0,0,1-.18.68.68,0,0,0-.24-.95.83.83,0,0,0-1,.3"/></g><path class="cls-36" d="M186.4,224.44a4,4,0,0,0-1.4-.39,4.21,4.21,0,0,0-1.42.3s.08-.16.33-.3a2.3,2.3,0,0,1,2.18.07C186.33,224.28,186.43,224.42,186.4,224.44Z"/><path class="cls-36" d="M186.28,226.11c0,.07-.57-.11-1.23,0a9.14,9.14,0,0,0-1.18.32c-.06,0,.38-.47,1.14-.56A1.58,1.58,0,0,1,186.28,226.11Z"/><path class="cls-36" d="M187,222.1a15,15,0,0,0-1.89-.16,16.27,16.27,0,0,0-1.87.32,3.09,3.09,0,0,1,1.86-.56A3,3,0,0,1,187,222.1Z"/><path class="cls-36" d="M185.68,218.94c0,.08-.74.09-1.58.39s-1.39.74-1.45.68a2.44,2.44,0,0,1,1.35-.9A2.81,2.81,0,0,1,185.68,218.94Z"/><path class="cls-36" d="M184.19,216a7.45,7.45,0,0,0-1.66.37,6,6,0,0,0-1.34.94s0-.19.22-.43a2.67,2.67,0,0,1,1-.73,3,3,0,0,1,1.25-.25A1.07,1.07,0,0,1,184.19,216Z"/><path class="cls-36" d="M182.26,215.77a.94.94,0,0,1-.21-.38,2.5,2.5,0,0,1-.16-1.13,1.15,1.15,0,0,1,.28-.79.57.57,0,0,1,.58-.12.85.85,0,0,1,.41.38,1.51,1.51,0,0,1-.76,1.93,2.32,2.32,0,0,1-2.33-.13.61.61,0,0,1-.28-.48.46.46,0,0,1,.37-.41,2,2,0,0,1,.93.05,4,4,0,0,1,1.17.47c.25.16.37.27.35.28a6.12,6.12,0,0,0-1.57-.59,1.84,1.84,0,0,0-.81,0,.25.25,0,0,0-.2.22.44.44,0,0,0,.2.31,2.11,2.11,0,0,0,2,.1,1.32,1.32,0,0,0,.67-1.63.51.51,0,0,0-.28-.28.29.29,0,0,0-.32.06,1.08,1.08,0,0,0-.25.66A4,4,0,0,0,182.26,215.77Z"/><path class="cls-30" d="M195.55,191.45l-14.77-8.8,4.89-42.5-14-7.23-12.79-2.62a169.44,169.44,0,0,0-7.72,16.14c-5.06,13.4-8.6,18.2-7.79,27.91.25,3.07,13.08,10.76,21.17,15a21,21,0,0,0,.43,2.55c2.77,11.07,11.22,25.8,11.22,25.8L189,212.45l-4.14-12.56,4.31,2.23Zm-31.74-27.4,1.72-6.81c-.37,4.33-.7,8.85-.94,13.18A12,12,0,0,1,163.81,164.05Z"/><path class="cls-30" d="M176.2,217.73a.76.76,0,0,1-.1-.18q-.1-.2-.27-.54c-.23-.48-.57-1.18-1-2.07-.86-1.8-2.08-4.42-3.54-7.66s-3.21-7.11-5-11.47c-.43-1.09-.86-2.21-1.26-3.37a15.34,15.34,0,0,1-.52-1.79c0-.15-.07-.31-.1-.46l-.06-.47-.12-.93c-.15-1.25-.28-2.53-.37-3.82,0-.65-.09-1.31-.11-2a18.82,18.82,0,0,1,0-2c.21-5.34.72-10.4,1.14-15s.83-8.75,1.15-12.23.55-6.31.67-8.26c.07-1,.11-1.73.13-2.24,0-.25,0-.45,0-.59s0-.2,0-.2a.63.63,0,0,1,0,.2v.59c0,.51,0,1.27-.08,2.25-.09,1.95-.29,4.77-.58,8.26s-.69,7.63-1.1,12.24-.9,9.67-1.12,15a18.63,18.63,0,0,0,0,2c0,.66.07,1.31.11,2,.09,1.29.22,2.57.37,3.82,0,.31.07.62.11.93l.06.46c0,.15.07.3.1.45a15.39,15.39,0,0,0,.51,1.76c.4,1.15.82,2.28,1.25,3.36,1.74,4.36,3.46,8.23,4.9,11.49s2.63,5.86,3.46,7.69l.94,2.09.24.54Z"/><path class="cls-30" d="M166.32,141.05a1.55,1.55,0,0,1-.33-.25,3,3,0,0,1-.63-.88,8.59,8.59,0,0,1-.63-3.38,24.65,24.65,0,0,1,.19-3.4,7,7,0,0,1,.22-1.4,7.3,7.3,0,0,1,0,1.41c-.05.87-.13,2.07-.1,3.39a9.86,9.86,0,0,0,.53,3.31,3.57,3.57,0,0,0,.53.89C166.24,140.92,166.33,141,166.32,141.05Z"/><path class="cls-30" d="M160.8,130.93a2.59,2.59,0,0,1,.11,1.19,5.14,5.14,0,0,1-1.06,2.72,6.18,6.18,0,0,1-2.47,1.87,3.54,3.54,0,0,1-1.29.34s.48-.15,1.2-.49a6.51,6.51,0,0,0,2.33-1.86,5.54,5.54,0,0,0,1.1-2.6C160.81,131.39,160.75,130.94,160.8,130.93Z"/><path class="cls-30" d="M183.75,155.64s0,0,0,.13l0,.38c0,.35-.09.83-.16,1.45-.16,1.27-.38,3.09-.66,5.33-.58,4.51-1.37,10.72-2.25,17.58a28.42,28.42,0,0,0,.73,9.65,31.16,31.16,0,0,0,1.34,4.06c.49,1.26,1,2.43,1.38,3.5.83,2.12,1.51,3.85,2,5.07l.53,1.38.13.36,0,.12s0,0-.07-.11l-.15-.36-.58-1.36c-.49-1.21-1.2-2.93-2.06-5-.44-1.07-.91-2.24-1.42-3.49a30.62,30.62,0,0,1-1.37-4.09,28.44,28.44,0,0,1-.75-9.71c.86-6.88,1.72-13.08,2.33-17.58.31-2.23.56-4,.74-5.32.09-.62.16-1.1.22-1.45l.06-.37Z"/><polyline class="cls-33" points="158.89 130.21 161.15 125.09 166.32 131.91 159.43 130.39"/><path class="cls-37" d="M213,114.81l-6.14-12.18c-.73-2-2.11-2.26-3.26-3.4l-15.37-7.67c-11.2-4.07-17.3,9.56-17.3,9.56l-10.18,20.56c-12,3.51-3.5,11.65-3.5,11.65s-3.26-5-.05-6.82,7.07,3.1,10.64,7.84c4.22,5.59,17.92,9.22,17.92,9.22,1.61-1.5,1.16-6.73,2.41-9.54.4-.89,9.89-20.35,9.89-20.35l3.68,7.89s4.72-4.9,7-5.67A28.53,28.53,0,0,1,213,114.81Z"/><path class="cls-36" d="M185.75,123.46a2.13,2.13,0,0,1-.46.29,9.47,9.47,0,0,1-1.4.59,11.49,11.49,0,0,1-5,.46,10.78,10.78,0,0,1-4.66-1.79,8.87,8.87,0,0,1-1.13-.93,1.9,1.9,0,0,1-.35-.4s.56.52,1.6,1.19a11.5,11.5,0,0,0,4.58,1.69,12,12,0,0,0,4.94-.39C185.05,123.81,185.73,123.42,185.75,123.46Z"/><path class="cls-37" d="M160.28,104.15h0l9.49.79,15.17-14.2L176,90.47l-15.9,1.39A32.32,32.32,0,0,1,160.28,104.15Z"/><path class="cls-36" d="M173.46,96.67l-.12.26-.38.72-1.41,2.66c-1.18,2.25-2.74,5.39-4.44,8.87s-3.24,6.62-4.41,8.88c-.58,1.13-1.06,2-1.4,2.66-.17.29-.3.53-.41.71a1.16,1.16,0,0,1-.15.25,1.12,1.12,0,0,1,.1-.27l.36-.73,1.33-2.69c1.12-2.31,2.64-5.45,4.33-8.91s3.29-6.61,4.52-8.84c.61-1.12,1.12-2,1.48-2.63l.43-.7C173.39,96.75,173.45,96.66,173.46,96.67Z"/><path class="cls-36" d="M202.41,100.8s-.56.31-1.37.92a8.83,8.83,0,0,0-1.28,1.17,9.09,9.09,0,0,0-1.2,1.69,8.46,8.46,0,0,0-.75,1.88,7.54,7.54,0,0,0-.25,1.62c0,.93.09,1.51,0,1.51s-.06-.14-.11-.4a2.65,2.65,0,0,1-.08-.48,6,6,0,0,1,0-.64,7,7,0,0,1,.19-1.66,8.88,8.88,0,0,1,.75-1.94,10,10,0,0,1,1.25-1.72,9.08,9.08,0,0,1,1.36-1.17,6.94,6.94,0,0,1,.59-.37A2.62,2.62,0,0,1,202,101C202.25,100.84,202.4,100.78,202.41,100.8Z"/><path class="cls-33" d="M205.06,81.3,196.16,96a6.23,6.23,0,0,1-7.57,2.29h0c-3.1-1.22-4.38-4.51-2.79-7.17l1.53-2.55s-3.87-2.22-2.06-5.92c1.62-3.3,7.54-12.62,8.8-14.59l7.5,3C205.79,73,207.36,77.62,205.06,81.3Z"/><path class="cls-38" d="M187.35,88.54a11.78,11.78,0,0,0,6.11.78s-2.62,2.14-6.6.17Z"/><path class="cls-36" d="M190.21,76.76a.55.55,0,0,0,.31.76.67.67,0,0,0,.85-.23.56.56,0,0,0-.31-.76A.67.67,0,0,0,190.21,76.76Z"/><path class="cls-36" d="M190.25,76.29c0,.1.63,0,1.27.24s1,.72,1.07.68,0-.17-.1-.38a1.71,1.71,0,0,0-.81-.63,1.85,1.85,0,0,0-1.06-.1C190.35,76.15,190.22,76.25,190.25,76.29Z"/><path class="cls-36" d="M196.19,79.37a.54.54,0,0,0,.3.75.66.66,0,0,0,.85-.23.54.54,0,0,0-.3-.76A.66.66,0,0,0,196.19,79.37Z"/><path class="cls-36" d="M196.47,78.89c0,.1.64,0,1.28.23s1,.73,1.07.68,0-.17-.1-.38a1.81,1.81,0,0,0-.82-.63,1.94,1.94,0,0,0-1.06-.1C196.58,78.74,196.45,78.84,196.47,78.89Z"/><path class="cls-36" d="M192,82.16a4.26,4.26,0,0,0-.95-.57c-.16-.08-.3-.17-.27-.28s.16-.25.32-.39l1-.91a22.56,22.56,0,0,0,2.54-2.44A21.42,21.42,0,0,0,192,79.83l-1,.92a.94.94,0,0,0-.37.53.38.38,0,0,0,.16.32,1.43,1.43,0,0,0,.26.15A5.05,5.05,0,0,0,192,82.16Z"/><path class="cls-36" d="M193.72,83.3c-.11,0-.42.57-1.23.77a4.56,4.56,0,0,1-1.57-.08s.11.19.41.32a2.15,2.15,0,0,0,1.29.1,1.64,1.64,0,0,0,1-.67C193.77,83.5,193.76,83.32,193.72,83.3Z"/><path class="cls-36" d="M197.43,76.61c0,.17.66.35,1.37.73s1.22.8,1.39.7.05-.23-.12-.48a2.67,2.67,0,0,0-.91-.76,3,3,0,0,0-1.2-.33C197.64,76.46,197.44,76.52,197.43,76.61Z"/><path class="cls-36" d="M191.31,74.75c.05.17.55.21,1.08.42s.94.47,1.11.38.07-.21-.06-.41a1.65,1.65,0,0,0-.77-.55,1.8,1.8,0,0,0-1-.09C191.42,74.56,191.29,74.67,191.31,74.75Z"/><path class="cls-33" d="M202.26,83.5c.08,0,3.23.39,1.87,2.87s-3.89.75-3.86.68Z"/><path class="cls-38" d="M201.64,86.48s0,0,.1.12a.53.53,0,0,0,.36.16,1.32,1.32,0,0,0,1.09-.71,1.55,1.55,0,0,0,.2-.68.52.52,0,0,0-.19-.49.3.3,0,0,0-.35,0c-.07.06-.08.11-.1.11s0-.07,0-.16a.38.38,0,0,1,.2-.11.42.42,0,0,1,.3.06.63.63,0,0,1,.3.6,1.48,1.48,0,0,1-.21.76,1.42,1.42,0,0,1-1.3.77.57.57,0,0,1-.41-.26C201.62,86.54,201.63,86.48,201.64,86.48Z"/><path class="cls-36" d="M203.88,84a1.85,1.85,0,0,0-1.68.08c-.37.29-.61.68-1,1a1.21,1.21,0,0,1-1.33.18.77.77,0,0,1-.3-.81,2.05,2.05,0,0,1,.4-.81c.76-1.11,1.63-2.17,2.28-3.33a6,6,0,0,0,.89-3.75,3.72,3.72,0,0,0-2.49-3c-.91-.28-1.93-.2-2.86-.43a3.69,3.69,0,0,1-2.46-2,6.34,6.34,0,0,0-.36-.56,1.68,1.68,0,0,1,.69-.66,10.08,10.08,0,0,1,7.84,1.54,7.76,7.76,0,0,1,3.49,6c0,2.3-1.61,4.84-3.13,6.55"/><path class="cls-36" d="M203.91,83.8a27.31,27.31,0,0,1,3-3.08c1-1.06,1.62-2.55.94-3.77-.24-.41-.61-.76-.81-1.19a5,5,0,0,1-.27-1.38,4.85,4.85,0,0,0-2.68-3.44c-1-.49-2.12-.69-3.12-1.15-1.58-.74-2.73-2.1-4.4-2.68a2.38,2.38,0,0,0-1.72,0c-.52.24-.81.92-.42,1.32-.07-.47-.76-.73-1.24-.53a1.18,1.18,0,0,0-.71,1.18,2.45,2.45,0,0,0,.61,1.29,7.51,7.51,0,0,0,4.25,2.6l3.82-.26,3.13,2L206.62,78l-4.2,4.84Z"/></g></svg>