<svg xmlns="http://www.w3.org/2000/svg" xmlns:xlink="http://www.w3.org/1999/xlink" viewBox="0 0 333 190"><defs><style>.cls-1{fill:none;}.cls-2{fill:#b3e3ef;}.cls-3{fill:#61b3db;}.cls-4{fill:#2d80aa;}.cls-5{clip-path:url(#clip-path);}.cls-6{fill:#ff6e2e;}.cls-7{fill:#036;}.cls-8{fill:#fca89e;}.cls-9{fill:#f7958d;}.cls-10{fill:#fff;}.cls-11{fill:#ceebf2;}.cls-12{fill:#833125;}.cls-13{fill:#f2d18f;}.cls-14{fill:#e8c079;}.cls-15{fill:#b7dfea;}.cls-16{fill:#a2ccda;}.cls-17{opacity:0.52;}.cls-18{fill:#f2847e;}.cls-19{fill:#da3f3a;}</style><clipPath id="clip-path"><path class="cls-1" d="M207.54,104.62H107.15a6.67,6.67,0,0,1-6.86-6.46v-61a6.67,6.67,0,0,1,6.86-6.46H207.54a6.67,6.67,0,0,1,6.86,6.46v61A6.67,6.67,0,0,1,207.54,104.62Z"/></clipPath></defs><title>HOME</title><g id="Capa_6" data-name="Capa 6"><path class="cls-2" d="M216.44,109.88H101.86a7.48,7.48,0,0,1-7.58-7.37V32.8a7.48,7.48,0,0,1,7.58-7.38H216.44A7.49,7.49,0,0,1,224,32.8v69.71A7.48,7.48,0,0,1,216.44,109.88Z"/><path class="cls-3" d="M207.54,104.62H107.15a6.67,6.67,0,0,1-6.86-6.46v-61a6.67,6.67,0,0,1,6.86-6.46H207.54a6.67,6.67,0,0,1,6.86,6.46v61A6.67,6.67,0,0,1,207.54,104.62Z"/><path class="cls-4" d="M220.47,75.17a1.34,1.34,0,0,1-1.42,1.27h0a1.35,1.35,0,0,1-1.42-1.27V60.39a1.35,1.35,0,0,1,1.42-1.27h0a1.35,1.35,0,0,1,1.42,1.27Z"/><g class="cls-5"><path class="cls-6" d="M143.37,19c-4.13,3-10.32,16.81-10.32,26.84s-3.54,12.68-6.49,15.34c-1.6,1.44,17,5.08,34.8,5,15-.09,29.55-3.74,30.09-4.69,1.18-2.06-6.78-5.9-6.49-18.28.24-10-2.36-14.75-7.08-19.47S143.37,19,143.37,19Z"/><rect class="cls-7" x="116.68" y="77.07" width="84.95" height="68.13" rx="26.55"/><path class="cls-8" d="M151.89,69.68c9.94,7.95,16.58,2.34,23.4-8.42,8.1-12.77,8.15-25.39-1.79-33.35a23.05,23.05,0,0,0-32.4,3.6C133.14,41.45,142,61.72,151.89,69.68Z"/></g><path class="cls-9" d="M170.88,77.41s-1.66,7.41-11.17,6.85S148.64,77,148.64,77L149,63.68h21.23Z"/><path class="cls-6" d="M140.79,54.51c.83,3.19,2.88,15.49,8.78,18.43s16.54,5,21.75.48c7.19-6.19,8-19.79,8-19.79C179.06,47.87,139,47.65,140.79,54.51Z"/><path class="cls-8" d="M150.53,55.84c.47-3.19,19.82-3.77,19.68,0C170,61.81,149.86,60.26,150.53,55.84Z"/><polygon class="cls-10" points="157.38 63.69 168.89 70.34 157.38 76.99 157.38 63.69"/><path class="cls-11" d="M127.59,141.89a25,25,0,1,1-25-25A25,25,0,0,1,127.59,141.89Z"/><path class="cls-2" d="M119.18,141.89a16.59,16.59,0,1,1-16.58-16.58A16.58,16.58,0,0,1,119.18,141.89Z"/><path class="cls-10" d="M117.2,141.89a14.61,14.61,0,1,1-14.6-14.6A14.6,14.6,0,0,1,117.2,141.89Z"/><path class="cls-12" d="M114.23,141.89a11.64,11.64,0,1,1-11.63-11.63A11.63,11.63,0,0,1,114.23,141.89Z"/><path class="cls-10" d="M115,133.17a2.47,2.47,0,0,1-3.5,0h0a2.47,2.47,0,0,1,0-3.5l2.45-2.45a2.49,2.49,0,0,1,3.5,0h0a2.47,2.47,0,0,1,0,3.5Z"/><rect class="cls-12" x="138.06" y="122.5" width="44.19" height="42.37"/><rect class="cls-12" x="182.24" y="122.5" width="44.19" height="42.37"/><path class="cls-12" d="M183.9,164a1.64,1.64,0,0,1-1.66,1.62h0a1.64,1.64,0,0,1-1.65-1.62V123.44a1.64,1.64,0,0,1,1.65-1.62h0a1.64,1.64,0,0,1,1.66,1.62Z"/><rect class="cls-13" x="139.42" y="121.43" width="42.82" height="42.18"/><rect class="cls-14" x="182.24" y="121.43" width="42.82" height="42.18"/><rect class="cls-15" x="139.42" y="121.43" width="42.82" height="42.18"/><rect class="cls-16" x="182.24" y="121.43" width="42.82" height="42.18"/><g class="cls-17"><path class="cls-10" d="M179.68,126.23a.65.65,0,0,1-.65.65H144a.65.65,0,0,1-.64-.65h0a.65.65,0,0,1,.64-.65h35a.65.65,0,0,1,.65.65Z"/></g><g class="cls-17"><path class="cls-10" d="M222.38,126.23a.65.65,0,0,1-.65.65h-35a.65.65,0,0,1-.65-.65h0a.65.65,0,0,1,.65-.65h35a.65.65,0,0,1,.65.65Z"/></g><g class="cls-17"><path class="cls-10" d="M222.38,130.38a.65.65,0,0,1-.65.65h-35a.65.65,0,0,1-.65-.65h0a.65.65,0,0,1,.65-.64h35a.65.65,0,0,1,.65.64Z"/></g><g class="cls-17"><path class="cls-10" d="M197.91,136.61c0,.36-.09.65-.21.65H186.25c-.11,0-.21-.29-.21-.65h0c0-.35.1-.64.21-.64H197.7c.12,0,.21.29.21.64Z"/></g><g class="cls-17"><path class="cls-10" d="M179.68,129.61a.66.66,0,0,1-.65.65H144a.65.65,0,0,1-.64-.65h0A.65.65,0,0,1,144,129h35a.65.65,0,0,1,.65.65Z"/></g><g class="cls-17"><path class="cls-10" d="M179.68,136a.65.65,0,0,1-.65.65H144a.65.65,0,0,1-.64-.65h0a.65.65,0,0,1,.64-.65h35a.65.65,0,0,1,.65.65Z"/></g><g class="cls-17"><path class="cls-10" d="M179.68,151.32a.65.65,0,0,1-.65.65H144a.65.65,0,0,1-.64-.65h0a.65.65,0,0,1,.64-.65h35a.65.65,0,0,1,.65.65Z"/></g><g class="cls-17"><path class="cls-10" d="M179.68,154.18a.65.65,0,0,1-.65.64H144a.64.64,0,0,1-.64-.64h0a.65.65,0,0,1,.64-.65h35a.65.65,0,0,1,.65.65Z"/></g><path class="cls-9" d="M176.26,168.89c-2.39-1.58-11.35,3-13.66,2.38s-1.3-3.06-1.3-3.06l4.67-8.68A5.58,5.58,0,0,0,163.7,152l-7.43-4c-9-4.82-15.26-3.4-20.08,5.56l-8,21.81a2.83,2.83,0,0,0,1.33,3.48l11.33,6.1a9.37,9.37,0,0,0,9.83-.59,27.83,27.83,0,0,1,3-1.94c4.33-2.22,12.32-4.28,18.52-6S178.65,170.47,176.26,168.89Z"/><path class="cls-9" d="M141.77,154.06c-.6,1.88-1.4,7.57-2.9,7.1l-.9-4.55c-1.5-.48-3.51,2-2.92.14l8.06-26.07c.59-1.88,2.29-3,3.8-2.55h0c1.5.47,2.24,2.38,1.65,4.26Z"/><path class="cls-9" d="M151.71,150.37c-.77,1.82-2.57,2.79-4,2.18h0c-1.45-.62-2-2.59-1.24-4.4l8.85-20.92c.77-1.81,2.57-2.79,4-2.17h0c1.46.62,2,2.58,1.24,4.4Z"/><path class="cls-9" d="M163.89,161.65c-1.28,1.5-3.29,1.88-4.49.85h0c-1.2-1-1.13-3.07.15-4.56l14.77-17.25c1.29-1.5,3.3-1.88,4.49-.86h0c1.2,1,1.13,3.07-.15,4.57Z"/><path class="cls-9" d="M160.64,151.62c-.95,1.72-2.84,2.5-4.22,1.74h0c-1.38-.76-1.73-2.78-.77-4.51l11-19.87c1-1.73,2.85-2.51,4.23-1.74h0c1.38.76,1.72,2.78.77,4.5Z"/><path class="cls-18" d="M147.45,132a1.69,1.69,0,1,1-.68-2.29A1.68,1.68,0,0,1,147.45,132Z"/><path class="cls-18" d="M159.5,129.08a1.68,1.68,0,1,1-.69-2.28A1.68,1.68,0,0,1,159.5,129.08Z"/><path class="cls-18" d="M170.76,131.16a1.69,1.69,0,1,1-.69-2.28A1.68,1.68,0,0,1,170.76,131.16Z"/><path class="cls-18" d="M178.13,143.22a1.69,1.69,0,1,1-.69-2.28A1.7,1.7,0,0,1,178.13,143.22Z"/><path class="cls-9" d="M219.33,142.13c3.91-6.38,19.16-16.9,19.07-13.37-.39,15,10.06,18.51,9.58,20.93s-6.75,12.88-9.87,13S215.85,147.8,219.33,142.13Z"/><path class="cls-9" d="M227.63,152.64c-4.67.26-17.84-5.39-18.82-8.89-1.74-6.27-3.5-12-.13-12.52s5.59,4.86,5.84,7.72,8.44,3.7,8.44,3.7Z"/><path class="cls-9" d="M220.88,140.31c1.3-3.37,3.18-8.24.72-14.34s-5.58.33-9,.59-3.89-5.91,3.12-8.24,9-1.56,11.61,2.07,4.41,15,4.41,15Z"/><path class="cls-9" d="M237.1,134c-.51-2.85-2.89-8.94-3.82-14.21-.85-4.73-3.57-6-12.72-5.71-7,.2-3.89,4.68-2.08,4.68s8.44-.72,9.61,3.05c1,3.25,2.27,15,2.27,15Z"/><path class="cls-9" d="M236.85,138.5c0-3.64,3-13.18,1.94-15.77s-4.86-9.48-7.2-8.24c-1.84,1,1.49,8.24,1.49,10.57s-1.3,10.65-1.3,10.65Z"/><rect class="cls-19" x="196.49" y="120.46" width="47.24" height="4.35" transform="matrix(0.84, -0.54, 0.54, 0.84, -31.41, 137.55)"/><path class="cls-3" d="M199,133.49l2.34,3.67-3.3,0a.47.47,0,0,1-.43-.66Z"/><path class="cls-18" d="M210.78,135.54a1.69,1.69,0,1,1-.69-2.29A1.68,1.68,0,0,1,210.78,135.54Z"/><path class="cls-18" d="M212.4,123.74c-.44.82-1.16,1.29-1.61,1s-.46-1.1,0-1.92,1.16-1.29,1.61-1S212.84,122.92,212.4,123.74Z"/><path class="cls-18" d="M175.07,173.87c-1.25.42-2.49.1-2.77-.73s.5-1.84,1.75-2.26,2.49-.11,2.77.72S176.32,173.44,175.07,173.87Z"/><path class="cls-18" d="M218.46,116.49c-.93,0-1.7-.38-1.71-.89s.74-.94,1.67-1,1.69.38,1.7.89S219.39,116.47,218.46,116.49Z"/><path class="cls-4" d="M241.84,110.2a2.27,2.27,0,1,1-2.27-2.26A2.27,2.27,0,0,1,241.84,110.2Z"/></g></svg>