<svg xmlns="http://www.w3.org/2000/svg" xmlns:xlink="http://www.w3.org/1999/xlink" viewBox="0 0 333 190"><defs><style>.cls-1{fill:#fff;}.cls-2{fill:#823024;}.cls-3{clip-path:url(#clip-path);}.cls-4{fill:#b3e3ef;}.cls-5{fill:#9b9b9b;}.cls-6{fill:#0c5c9b;}.cls-7{fill:#ff6e2e;}.cls-8{fill:#f7958d;}.cls-9{fill:#fca89e;}.cls-10{fill:#036;}.cls-11{fill:#2b79e6;}.cls-12{fill:#f59762;}.cls-13{fill:#8fd5e5;}.cls-14{fill:#ff645f;}.cls-15{clip-path:url(#clip-path-2);}</style><clipPath id="clip-path"><path class="cls-1" d="M132.64,132h73.82V110H132.64C129.76,110,129.76,132,132.64,132Z"/></clipPath><clipPath id="clip-path-2"><path class="cls-1" d="M209.63,139h-96v22.59h96C212.58,161.59,212.58,139,209.63,139Z"/></clipPath></defs><title>HOME</title><g id="Capa_6" data-name="Capa 6"><path class="cls-1" d="M112.36,1.32A1.33,1.33,0,1,1,111,0,1.32,1.32,0,0,1,112.36,1.32Z"/><path class="cls-1" d="M33,92.67a.9.9,0,0,1,.5,1.16.89.89,0,1,1-.5-1.16Z"/><path class="cls-2" d="M131.51,135.29h75V106.63h-75c-3.75,0-6.79,4.4-6.79,9.83v9C124.72,130.9,127.76,135.29,131.51,135.29Z"/><path class="cls-1" d="M132.64,132h73.82V110H132.64C129.76,110,129.76,132,132.64,132Z"/><g class="cls-3"><rect class="cls-4" x="128.31" y="128.2" width="79.57" height="1.16"/><rect class="cls-4" x="128.31" y="124.34" width="79.57" height="1.16"/><rect class="cls-4" x="128.31" y="120.49" width="79.57" height="1.16"/><rect class="cls-4" x="128.31" y="116.63" width="79.57" height="1.16"/><rect class="cls-4" x="128.31" y="112.78" width="79.57" height="1.16"/></g><path class="cls-5" d="M153.58,107.26s-4.8,6.79-1.48,10.86,30.44.88,31.55-3.65-1.66-9.93-1.66-9.93Z"/><rect class="cls-6" x="151.98" y="103.51" width="47.54" height="3.49"/><path class="cls-7" d="M148.22,48.36c-5.16.74-17.53,29.76-13.84,36.41s24,14.39,24,14.39l-1.11-11.44s-13.89-5.91-12.79-9.6,9.1-17.46,9.1-17.46Z"/><path class="cls-7" d="M182.82,48.36c5.16.74,17.53,29.76,13.84,36.41s-24,14.39-24,14.39l1.1-11.44s13.9-5.91,12.8-9.6-9.11-17.46-9.11-17.46Z"/><path class="cls-7" d="M151.4,47.52h28.38a7.41,7.41,0,0,1,7.56,7.5s-5.41,22.09-5.48,29.5c0,4.06,1.28,16.2,1.28,16.2H148.05s1.62-12.69,1.59-16.94c-.06-7.23-5.79-28.76-5.79-28.76A7.4,7.4,0,0,1,151.4,47.52Z"/><path class="cls-8" d="M169.23,53.07a3.24,3.24,0,0,1-3.53,2.82c-3.48-.16-3.73-2.82-3.73-2.82V39.26h7.26Z"/><path class="cls-9" d="M174.56,38.65c0,5-4,12.32-9,12.32s-9-7.37-9-12.32a9,9,0,1,1,17.93,0Z"/><rect class="cls-10" x="141.83" y="75.39" width="47.54" height="28.34"/><path class="cls-6" d="M170,89.08a4.37,4.37,0,1,1-4.37-4.37A4.37,4.37,0,0,1,170,89.08Z"/><path class="cls-11" d="M162.42,118.86a11.93,11.93,0,0,1-3.32,1.84c-2.54,1.07-7.58,3.06-6.83,5.26,1,3,4.57,2.73,6.92,2a45.46,45.46,0,0,0,10.42-5.14Z"/><path class="cls-4" d="M168.52,111.15c8.63-6.3,13.14-11,22.83-16.84,2.3-1.4,3.88-1.82,7.88-.25,3.4,1.33,3,7.19,1.18,9.63-5.57,7.33-27,17.45-31.39,19-1.88.66-8.49-4.91-5.81-7.58A49.84,49.84,0,0,1,168.52,111.15Z"/><path class="cls-11" d="M164.54,123.29a28.58,28.58,0,0,0,4.55,4.67c2.92,2.26,4.94,3,7.32,1.91,3.44-1.6.28-5-2.4-7.66a37.72,37.72,0,0,0-6.8-5.61Z"/><path class="cls-10" d="M156.8,40.39a33.63,33.63,0,0,0,4.06-7.1c1-2.95,1.57.18,5.81,3.41,2.22,1.69,7.81,3.79,7.81,3.79s1.28-5.61-.7-8.49c-4.71-6.83-14.33-6.38-17.25,1.6A8,8,0,0,0,156.8,40.39Z"/><path class="cls-12" d="M165,115l3.68,3a8.58,8.58,0,0,1,1.92,2.24c1.21,2.24-2.94,6.79-5.64,4.11s-5.09-5.55-5.09-5.55Z"/><path class="cls-13" d="M154,119.82c-10-5-16.18-6.87-22.63-15.95-1.64-2.32-2.3-6.14-1.66-8,.79-2.33,4.18-3.72,8.18-2.77,3.36.8,25.89,18.45,29.41,21.78,1.51,1.43-3.1,8.6-6.89,7.37A38.18,38.18,0,0,1,154,119.82Z"/><path class="cls-14" d="M210.79,135.6H113.53V165h97.26c3.84,0,7-4.51,7-10.08v-9.24C217.75,140.11,214.63,135.6,210.79,135.6Z"/><path class="cls-1" d="M209.63,139h-96v22.59h96C212.58,161.59,212.58,139,209.63,139Z"/><g class="cls-15"><rect class="cls-4" x="112.17" y="141.69" width="101.9" height="1.19"/><rect class="cls-4" x="112.17" y="145.64" width="101.9" height="1.19"/><rect class="cls-4" x="112.17" y="149.6" width="101.9" height="1.19"/><rect class="cls-4" x="112.17" y="153.56" width="101.9" height="1.19"/><rect class="cls-4" x="112.17" y="157.51" width="101.9" height="1.19"/></g></g></svg>